<!-- <svg fill="#ffffff" height="200px" width="200px" version="1.1" id="Capa_1" xmlns="http://www.w3.org/2000/svg" xmlns:xlink="http://www.w3.org/1999/xlink" 
viewBox="-22.17 -22.17 229.09 229.09" xml:space="preserve" transform="rotate(90)">
  <g id="SVGRepo_bgCarrier" stroke-linecap="round" stroke-linejoin="round" stroke="#000000" stroke-width="28">
    <path d="M0,92.375l46.188-80h92.378l46.185,80l-46.185,80H46.188L0,92.375z"></path> 
  </g>
  <g id="SVGRepo_tracerCarrier" stroke-linecap="round" stroke-linejoin="round" stroke="transparent" stroke-width="14.780080000000002"> 
    <path d="M0,92.375l46.188-80h92.378l46.185,80l-46.185,80H46.188L0,92.375z"></path> 
  </g>
  <g id="SVGRepo_iconCarrier"> 
    <path d="M0,92.375l46.188-80h92.378l46.185,80l-46.185,80H46.188L0,92.375z"></path> 
  </g>
</svg> -->

<svg fill="#ffffff" height="256px" width="256px" version="1.1" id="Capa_1" xmlns="http://www.w3.org/2000/svg" xmlns:xlink="http://www.w3.org/1999/xlink" viewBox="0 0 490.00 490.00" xml:space="preserve" stroke="#ffffff" stroke-width="0.0049"><g id="SVGRepo_bgCarrier" stroke-width="0"></g><g id="SVGRepo_tracerCarrier" stroke-linecap="round" stroke-linejoin="round" stroke="#000000" stroke-width="6.860000000000001"> <g> <path d="M466.032,367.5v-245L245,0L23.968,122.5v245L245,490L466.032,367.5z M118.865,175.094L245,105.188l126.136,69.906v139.813 L245,384.813l-126.135-69.906V175.094z"></path> <polygon points="331.299,292.828 331.299,197.172 245,149.343 158.701,197.172 158.701,292.828 245,340.657 "></polygon> </g> </g><g id="SVGRepo_iconCarrier"> <g> <path d="M466.032,367.5v-245L245,0L23.968,122.5v245L245,490L466.032,367.5z M118.865,175.094L245,105.188l126.136,69.906v139.813 L245,384.813l-126.135-69.906V175.094z"></path> <polygon points="331.299,292.828 331.299,197.172 245,149.343 158.701,197.172 158.701,292.828 245,340.657 "></polygon> </g> </g></svg>