 <svg  version="1.0" xmlns="http://www.w3.org/2000/svg"  width="300.000000pt" height="300.000000pt" viewBox="0 0 300.000000 300.000000"  preserveAspectRatio="xMidYMid meet">  <g transform="translate(0.000000,300.000000) scale(0.050000,-0.050000)" fill="#bc7c61" stroke="none"> <path d="M2630 5988 c-183 -44 -274 -148 -282 -324 l-5 -114 -678 -10 -678 -10 -76 -58 c-187 -142 -188 -565 -2 -729 l76 -66 17 -323 c18 -327 51 -907 108 -1864 54 -918 68 -1168 102 -1770 37 -640 42 -671 119 -700 61 -23 189 -27 189 -5 0 8 666 15 1480 15 814 0 1480 -7 1480 -15 0 -22 128 -18 189 5 77 29 82 60 119 700 34 602 48 852 102 1770 57 957 90 1537 108 1864 l17 323 76 66 c186 164 185 587 -2 729 l-76 58 -678 10 -678 10 -5 114 c-7 136 -65 235 -171 288 -70 36 -736 63 -851 36z m749 -287 c12 -21 21 -66 21 -100 l0 -61 -400 0 -400 0 0 61 c0 138 2 139 400 139 334 0 360 -3 379 -39z m1560 -449 c14 -17 21 -82 17 -165 l-6 -137 -1950 0 -1950 0 -6 137 c-4 83 3 148 17 165 36 42 3842 42 3878 0z m-189 -596 c4 -3 -2 -118 -12 -256 -9 -137 -31 -497 -48 -800 -43 -787 -86 -1541 -109 -1900 -11 -170 -35 -564 -54 -875 l-34 -565 -1493 0 -1493 0 -34 565 c-19 311 -43 700 -54 865 -10 165 -32 543 -49 840 -17 297 -39 693 -50 880 -11 187 -29 507 -40 710 -12 204 -26 411 -32 460 l-10 90 1753 -4 c965 -2 1756 -7 1759 -10z"/> <path d="M1884 4149 c-55 -39 -55 -69 -14 -826 17 -304 44 -796 60 -1093 16 -297 39 -760 51 -1030 27 -600 53 -679 207 -621 86 33 92 115 52 771 -11 176 -34 590 -50 920 -16 330 -43 852 -60 1160 -16 308 -30 583 -30 611 0 112 -123 173 -216 108z"/> <path d="M2911 4149 c-52 -53 -52 -66 -47 -1813 7 -1880 -2 -1763 136 -1763 138 0 129 -117 136 1763 6 1947 14 1844 -136 1844 -31 0 -71 -14 -89 -31z"/> <path d="M3941 4136 c-23 -24 -41 -67 -41 -95 0 -28 -14 -303 -30 -611 -17 -308 -44 -830 -60 -1160 -16 -330 -39 -744 -50 -920 -40 -656 -34 -738 52 -771 154 -58 180 21 207 621 12 270 35 733 51 1030 111 2027 107 1875 46 1919 -63 43 -127 39 -175 -13z"/> </g> </svg> 